<svg width="26" height="26" viewBox="0 0 26 26" fill="none" xmlns="http://www.w3.org/2000/svg">
<path fill-rule="evenodd" clip-rule="evenodd" d="M13 26C20.1797 26 26 20.1797 26 13C26 5.8203 20.1797 0 13 0C5.8203 0 0 5.8203 0 13C0 20.1797 5.8203 26 13 26ZM10.5582 14.1917C10.5322 14.4517 10.5192 14.7182 10.5192 14.9912H13.5417C13.5417 14.7832 13.6197 14.6012 13.7757 14.4452C13.9447 14.2892 14.1527 14.1397 14.3997 13.9967C14.6597 13.8537 14.9392 13.7107 15.2382 13.5677C15.5372 13.4247 15.8297 13.2557 16.1157 13.0607C16.7007 12.6707 17.1037 12.2222 17.3247 11.7152C17.5587 11.1952 17.6757 10.6232 17.6757 9.99917C17.6757 9.27117 17.5457 8.65367 17.2857 8.14667C17.0387 7.63967 16.7072 7.23017 16.2912 6.91817C15.8882 6.60617 15.4332 6.37867 14.9262 6.23567C14.4192 6.09267 13.9187 6.02117 13.4247 6.02117C12.4887 6.02117 11.6567 6.24217 10.9287 6.68417C10.2007 7.12617 9.66767 7.74367 9.32967 8.53667L11.6892 10.2137C11.7672 10.1227 11.8452 10.0122 11.9232 9.88217C12.0142 9.73917 12.1182 9.60267 12.2352 9.47267C12.3652 9.34267 12.5147 9.23217 12.6837 9.14117C12.8527 9.05017 13.0542 9.00467 13.2882 9.00467C13.6002 9.00467 13.8732 9.09567 14.1072 9.27767C14.3412 9.44667 14.4582 9.68067 14.4582 9.97967C14.4582 10.2527 14.3607 10.5062 14.1657 10.7402C13.9707 10.9612 13.7367 11.1627 13.4637 11.3447C13.2037 11.5267 12.9372 11.6827 12.6642 11.8127C12.4042 11.9427 12.2027 12.0467 12.0597 12.1247C11.7087 12.3067 11.4292 12.5082 11.2212 12.7292C11.0132 12.9502 10.8572 13.1842 10.7532 13.4312C10.6492 13.6652 10.5842 13.9187 10.5582 14.1917ZM10.5777 16.8437V20.0417H13.6002V16.8437H10.5777Z" fill="#D41F45"/>
</svg>
